{"glyphs":{":":{"x_min":0,"x_max":289,"ha":289,"o":"m 42 81 q 42 126 69 150 q 95 175 146 175 q 194 175 220 150 q 246 126 246 81 q 246 37 219 12 q 193 -12 146 -12 q 98 -12 70 12 q 42 37 42 81 z m 42 467 q 42 511 69 536 q 96 560 146 560 q 194 560 220 536 q 246 511 246 467 q 246 423 220 398 q 193 373 146 373 q 96 373 69 398 q 42 423 42 467 z"},"$":{"x_min":0,"x_max":586,"ha":586,"o":"m 246 33 q 139 38 40 81 l 40 243 q 97 214 163 195 q 229 176 280 176 q 321 176 341 186 q 360 196 360 219 q 360 235 346 247 q 332 258 300 272 q 267 286 212 306 q 150 329 112 358 q 74 386 56 422 q 39 457 39 510 q 39 590 91 636 q 143 681 246 692 l 246 759 l 347 759 l 347 693 q 444 688 543 645 l 485 506 q 383 552 301 552 q 262 552 246 542 q 230 533 230 514 q 230 498 241 488 q 253 477 281 464 q 310 451 360 434 q 462 398 506 352 q 551 306 551 233 q 551 151 499 100 q 447 48 347 36 l 347 -58 l 246 -58 z m 299 714 z"},"?":{"x_min":0,"x_max":505,"ha":505,"o":"m 144 252 l 144 294 q 144 342 164 375 q 183 408 233 439 q 272 464 290 484 q 307 504 307 530 q 307 550 289 562 q 270 574 240 574 q 167 574 68 522 l 0 655 q 122 724 254 724 q 363 724 425 676 q 487 628 487 546 q 487 487 459 444 q 432 400 371 362 q 320 329 307 313 q 294 298 294 277 l 294 252 z m 123 81 q 123 126 149 150 q 175 175 226 175 q 275 175 301 150 q 327 125 327 81 q 327 37 300 12 q 273 -12 226 -12 q 178 -12 150 12 q 123 36 123 81 z"},"<":{"x_min":0,"x_max":566,"ha":566,"o":"m 529 87 l 35 306 l 35 390 l 529 637 l 529 492 l 226 354 l 529 231 z"},"'":{"x_min":0,"x_max":292,"ha":292,"o":"m 233 714 l 213 456 l 79 456 l 59 714 z"},"=":{"x_min":0,"x_max":566,"ha":566,"o":"m 35 398 l 35 529 l 531 529 l 531 398 z m 35 175 l 35 307 l 531 307 l 531 175 z"},"a":{"x_min":0,"x_max":623,"ha":623,"o":"m 427 0 l 390 73 l 386 73 q 348 25 308 8 q 268 -10 204 -10 q 126 -10 81 37 q 36 84 36 169 q 36 257 98 301 q 159 344 276 349 l 368 352 l 368 360 q 368 428 301 428 q 240 428 147 387 l 92 513 q 188 563 336 563 q 442 563 501 510 q 559 458 559 363 l 559 0 z m 285 125 q 320 125 344 147 q 369 169 369 204 l 369 247 l 325 245 q 231 242 231 176 q 231 125 285 125 z"},"L":{"x_min":0,"x_max":582,"ha":582,"o":"m 77 0 l 77 714 l 270 714 l 270 156 l 545 156 l 545 0 z"},"3":{"x_min":0,"x_max":586,"ha":586,"o":"m 524 559 q 524 493 483 445 q 443 397 366 376 l 366 373 q 545 351 545 204 q 545 104 466 47 q 387 -10 247 -10 q 189 -10 140 -1 q 91 7 34 29 l 34 189 q 81 165 130 154 q 178 142 219 142 q 283 142 312 160 q 341 178 341 216 q 341 245 326 261 q 311 277 277 285 q 243 293 189 293 l 145 293 l 145 438 l 190 438 q 337 438 337 513 q 337 542 315 555 q 293 569 257 569 q 188 569 115 523 l 35 652 q 92 691 151 708 q 210 724 287 724 q 398 724 461 680 q 524 636 524 559 z"},";":{"x_min":0,"x_max":297,"ha":297,"o":"m 243 146 l 250 135 q 203 -51 164 -139 l 28 -139 q 42 -72 56 12 q 71 96 76 146 z m 45 467 q 45 511 71 536 q 97 560 148 560 q 197 560 223 535 q 249 511 249 467 q 249 423 223 398 q 196 373 148 373 q 98 373 72 398 q 45 422 45 467 z"},"J":{"x_min":0,"x_max":352,"ha":352,"o":"m 21 -224 q -32 -224 -79 -214 l -79 -64 q -63 -67 -46 -71 q -28 -74 -8 -74 q 40 -74 61 -45 q 81 -17 81 53 l 81 714 l 275 714 l 275 70 q 275 -75 211 -150 q 148 -224 21 -224 z"},"V":{"x_min":0,"x_max":694,"ha":694,"o":"m 478 714 l 694 714 l 460 0 l 233 0 l 0 714 l 217 714 l 314 352 q 344 231 347 184 q 351 218 361 270 q 371 321 379 350 z"},"\"":{"x_min":0,"x_max":524,"ha":524,"o":"m 233 714 l 213 456 l 79 456 l 59 714 z m 465 714 l 445 456 l 311 456 l 291 714 z"},"7":{"x_min":0,"x_max":586,"ha":586,"o":"m 102 0 l 347 553 l 38 553 l 38 713 l 553 713 l 553 599 l 302 0 z"},"S":{"x_min":0,"x_max":577,"ha":577,"o":"m 544 217 q 544 150 510 99 q 477 47 413 19 q 350 -10 264 -10 q 193 -10 145 0 q 96 10 44 35 l 44 207 q 99 179 159 163 q 218 147 268 147 q 311 147 331 162 q 351 177 351 200 q 351 215 343 226 q 335 237 317 248 q 299 259 222 294 q 152 326 117 355 q 83 385 66 424 q 49 462 49 515 q 49 614 121 669 q 192 724 318 724 q 429 724 544 673 l 485 524 q 385 570 312 570 q 274 570 257 557 q 240 543 240 524 q 240 503 262 486 q 284 470 380 426 q 472 384 508 337 q 544 289 544 217 z"},"}":{"x_min":0,"x_max":433,"ha":433,"o":"m 403 204 q 349 204 316 182 q 283 160 283 121 l 283 0 q 283 -68 259 -103 q 235 -137 182 -152 q 128 -168 32 -168 l 32 -32 q 85 -30 105 -18 q 125 -5 125 20 l 125 155 q 125 208 152 236 q 180 265 242 275 l 242 281 q 180 290 153 319 q 125 349 125 404 l 125 536 q 125 555 115 566 q 106 576 91 581 q 76 586 32 588 l 32 724 q 128 724 182 709 q 235 693 259 660 q 283 626 283 558 l 283 434 q 283 395 315 373 q 347 351 403 351 z"},"Z":{"x_min":0,"x_max":611,"ha":611,"o":"m 586 0 l 30 0 l 30 119 l 339 558 l 37 558 l 37 714 l 578 714 l 578 595 l 269 156 l 586 156 z"},"x":{"x_min":0,"x_max":630,"ha":630,"o":"m 183 282 l 14 553 l 231 553 l 315 398 l 401 553 l 618 553 l 445 282 l 625 0 l 408 0 l 315 168 l 222 0 l 5 0 z"},")":{"x_min":0,"x_max":359,"ha":359,"o":"m 323 284 q 323 146 288 33 q 253 -80 186 -158 l 28 -158 q 89 -74 122 41 q 155 157 155 285 q 155 415 123 530 q 90 646 27 734 l 186 734 q 254 653 289 538 q 323 422 323 284 z m 121 725 z"},"&":{"x_min":0,"x_max":799,"ha":799,"o":"m 557 0 l 509 50 q 465 22 437 11 q 409 1 374 -4 q 339 -10 294 -10 q 217 -10 157 17 q 98 43 67 90 q 35 138 35 198 q 35 326 168 394 q 138 428 121 467 q 104 505 104 553 q 104 631 164 677 q 225 723 330 723 q 433 723 490 677 q 548 632 548 553 q 548 499 517 453 q 486 407 419 366 l 516 274 q 553 330 567 401 l 765 401 q 750 333 719 266 q 688 198 648 150 l 804 0 z m 232 212 q 232 181 254 162 q 276 142 312 142 q 340 142 361 149 q 382 157 393 166 l 272 289 q 232 259 232 212 z m 376 553 q 376 577 362 588 q 348 598 327 598 q 307 598 291 586 q 276 574 276 547 q 276 510 319 471 q 347 487 361 509 q 376 530 376 553 z"},"_":{"x_min":0,"x_max":500,"ha":500,"o":"m 502 -185 l -2 -185 l -2 -65 l 502 -65 z"},"v":{"x_min":0,"x_max":611,"ha":611,"o":"m 211 0 l 0 553 l 199 553 l 293 226 q 293 224 295 218 q 296 212 298 204 q 299 196 301 187 q 302 178 302 170 l 305 170 q 305 195 314 225 l 412 553 l 611 553 l 400 0 z"},"O":{"x_min":0,"x_max":797,"ha":797,"o":"m 745 358 q 745 178 657 84 q 568 -10 398 -10 q 230 -10 140 84 q 51 179 51 359 q 51 537 140 631 q 229 725 399 725 q 569 725 657 632 q 745 539 745 358 z m 254 358 q 254 151 398 151 q 471 151 507 201 q 542 251 542 358 q 542 465 506 516 q 470 567 399 567 q 254 567 254 358 z"},"(":{"x_min":0,"x_max":359,"ha":359,"o":"m 36 284 q 36 426 71 540 q 105 653 173 734 l 332 734 q 271 648 237 533 q 204 417 204 285 q 204 158 236 43 q 269 -71 331 -158 l 173 -158 q 106 -81 71 31 q 36 144 36 284 z m 241 725 z"},"C":{"x_min":0,"x_max":649,"ha":649,"o":"m 395 566 q 326 566 288 510 q 249 453 249 354 q 249 148 406 148 q 453 148 498 161 q 542 174 587 193 l 587 30 q 498 -10 385 -10 q 223 -10 137 84 q 51 178 51 355 q 51 466 93 550 q 134 634 213 679 q 291 724 397 724 q 513 724 618 674 l 559 522 q 520 541 480 553 q 440 566 395 566 z"},"W":{"x_min":0,"x_max":1039,"ha":1039,"o":"m 848 0 l 620 0 l 552 311 q 547 331 536 389 q 526 447 521 486 q 517 454 508 407 q 500 360 491 320 q 482 281 420 0 l 192 0 l 15 714 l 201 714 l 279 356 q 305 237 315 167 q 321 217 338 302 q 354 388 368 444 l 431 714 l 610 714 l 671 444 q 687 379 703 294 q 719 209 724 167 q 730 221 759 355 l 838 714 l 1024 714 z"},"A":{"x_min":0,"x_max":726,"ha":726,"o":"m 515 0 l 480 134 l 248 134 l 212 0 l 0 0 l 233 717 l 490 717 l 726 0 z m 440 292 l 409 409 q 398 448 383 510 q 368 572 363 599 q 358 574 345 517 q 333 460 288 292 z"},"f":{"x_min":0,"x_max":413,"ha":413,"o":"m 404 410 l 286 410 l 286 0 l 95 0 l 95 410 l 22 410 l 22 504 l 99 551 l 99 560 q 99 669 144 717 q 188 765 287 765 q 325 765 359 759 q 393 753 438 739 l 397 615 q 362 625 328 625 q 306 625 296 612 q 286 598 286 568 l 286 553 l 404 553 z"},"Q":{"x_min":0,"x_max":797,"ha":797,"o":"m 745 358 q 745 115 591 31 l 765 -170 l 525 -170 l 399 -11 l 398 -11 l 398 -10 l 398 -10 q 230 -10 140 84 q 51 179 51 359 q 51 537 140 631 q 229 725 399 725 q 569 725 657 632 q 745 539 745 358 z m 254 358 q 254 151 398 151 q 471 151 507 201 q 542 251 542 358 q 542 465 506 516 q 470 567 399 567 q 254 567 254 358 z"},"w":{"x_min":0,"x_max":910,"ha":910,"o":"m 542 0 l 479 264 l 465 343 l 455 407 l 452 407 q 428 271 420 235 l 364 0 l 163 0 l 12 553 l 200 553 l 245 341 q 267 231 270 159 l 273 159 q 274 204 300 330 l 351 553 l 562 553 l 609 327 q 631 219 637 159 l 640 159 q 643 196 650 252 q 657 307 665 341 l 714 553 l 898 553 l 746 0 z"},"-":{"x_min":0,"x_max":318,"ha":318,"o":"m 21 192 l 21 344 l 297 344 l 297 192 z"},"E":{"x_min":0,"x_max":549,"ha":549,"o":"m 501 0 l 77 0 l 77 714 l 501 714 l 501 559 l 270 559 l 270 447 l 484 447 l 484 292 l 270 292 l 270 157 l 501 157 z"},"s":{"x_min":0,"x_max":533,"ha":533,"o":"m 493 170 q 493 81 433 36 q 372 -10 259 -10 q 197 -10 152 -3 q 106 3 59 21 l 59 174 q 104 154 156 142 q 209 129 251 129 q 313 129 313 157 q 313 172 296 183 q 278 195 195 228 q 119 259 88 299 q 58 339 58 400 q 58 477 118 520 q 177 563 286 563 q 341 563 389 551 q 437 539 489 516 l 437 393 q 399 410 356 422 q 314 434 287 434 q 240 434 240 411 q 240 397 257 387 q 273 377 351 346 q 409 322 438 299 q 466 276 480 245 q 493 214 493 170 z"},">":{"x_min":0,"x_max":566,"ha":566,"o":"m 35 231 l 338 354 l 35 492 l 35 637 l 529 390 l 529 306 l 35 87 z"},"l":{"x_min":0,"x_max":323,"ha":323,"o":"m 257 0 l 66 0 l 66 760 l 257 760 z"},"8":{"x_min":0,"x_max":586,"ha":586,"o":"m 295 724 q 408 724 470 679 q 533 633 533 550 q 533 493 504 450 q 474 408 410 376 q 489 331 522 286 q 554 242 554 190 q 554 95 485 42 q 417 -10 293 -10 q 167 -10 100 41 q 33 92 33 188 q 33 250 63 294 q 93 337 163 373 q 106 411 80 455 q 54 499 54 551 q 54 633 118 678 q 182 724 295 724 z m 210 196 q 210 166 231 147 q 253 129 291 129 q 377 129 377 192 q 377 216 358 239 q 339 262 291 291 q 248 268 229 245 q 210 222 210 196 z m 294 585 q 269 585 252 571 q 235 556 235 533 q 235 491 292 459 q 327 479 339 496 q 352 512 352 533 q 352 557 335 571 q 318 585 294 585 z"},"\\":{"x_min":0,"x_max":442,"ha":442,"o":"m 172 724 l 438 -10 l 269 -10 l 3 724 z"},"e":{"x_min":0,"x_max":618,"ha":618,"o":"m 333 -10 q 195 -10 118 64 q 42 137 42 273 q 42 413 113 488 q 184 563 315 563 q 440 563 508 498 q 576 433 576 310 l 576 225 l 235 225 q 237 179 269 152 q 301 126 356 126 q 406 126 448 135 q 491 145 540 168 l 540 31 q 495 8 447 -1 q 399 -10 333 -10 z m 322 433 q 288 433 265 412 q 243 391 239 345 l 403 345 q 402 385 380 409 q 358 433 322 433 z"},"b":{"x_min":0,"x_max":643,"ha":643,"o":"m 404 563 q 494 563 547 487 q 600 412 600 278 q 600 143 547 67 q 493 -10 398 -10 q 367 -10 343 -3 q 319 3 301 15 q 282 27 257 54 l 245 54 l 215 0 l 66 0 l 66 760 l 257 760 l 257 588 q 257 557 250 482 l 257 482 q 285 525 321 544 q 357 563 404 563 z m 334 413 q 294 413 275 385 q 257 357 257 298 l 257 271 q 257 203 275 174 q 294 144 336 144 q 370 144 388 178 q 406 213 406 280 q 406 413 334 413 z"},"%":{"x_min":0,"x_max":948,"ha":948,"o":"m 165 499 q 165 443 174 418 q 184 393 202 393 q 221 393 230 417 q 239 442 239 499 q 239 555 230 580 q 221 605 202 605 q 183 605 174 580 q 165 554 165 499 z m 386 501 q 386 394 338 335 q 290 276 200 276 q 116 276 67 337 q 18 397 18 501 q 18 608 66 666 q 114 724 200 724 q 286 724 336 664 q 386 604 386 501 z m 742 714 l 346 0 l 201 0 l 597 714 z m 708 215 q 708 159 717 134 q 727 109 745 109 q 766 109 774 137 q 782 166 782 215 q 782 264 774 292 q 766 321 745 321 q 726 321 717 295 q 708 270 708 215 z m 929 217 q 929 110 881 51 q 832 -8 743 -8 q 659 -8 610 53 q 561 114 561 217 q 561 324 609 382 q 657 440 743 440 q 829 440 879 380 q 929 320 929 217 z"},"m":{"x_min":0,"x_max":1000,"ha":1000,"o":"m 745 0 l 745 301 q 745 357 730 385 q 714 413 681 413 q 637 413 617 375 q 596 338 596 258 l 596 0 l 405 0 l 405 301 q 405 357 390 385 q 375 413 343 413 q 298 413 277 373 q 257 333 257 242 l 257 0 l 66 0 l 66 553 l 210 553 l 234 485 l 245 485 q 267 523 309 543 q 351 563 404 563 q 523 563 572 490 l 587 490 q 610 524 652 544 q 694 563 744 563 q 842 563 889 513 q 936 462 936 360 l 936 0 z"},"#":{"x_min":0,"x_max":662,"ha":662,"o":"m 509 397 l 494 315 l 613 315 l 613 191 l 471 191 l 435 0 l 304 0 l 340 191 l 258 191 l 223 0 l 93 0 l 128 191 l 18 191 l 18 315 l 152 315 l 167 397 l 51 397 l 51 524 l 191 524 l 226 714 l 357 714 l 321 524 l 402 524 l 437 714 l 568 714 l 532 524 l 644 524 l 644 397 z m 282 315 l 363 315 l 378 397 l 297 397 z"},",":{"x_min":0,"x_max":309,"ha":309,"o":"m 243 146 l 250 135 q 203 -51 164 -139 l 28 -139 q 42 -72 56 12 q 71 96 76 146 z"},"n":{"x_min":0,"x_max":670,"ha":670,"o":"m 415 0 l 415 302 q 415 357 399 385 q 383 413 348 413 q 300 413 278 375 q 257 336 257 242 l 257 0 l 66 0 l 66 553 l 210 553 l 234 485 l 245 485 q 270 524 313 543 q 356 563 412 563 q 504 563 555 510 q 606 457 606 360 l 606 0 z"},"h":{"x_min":0,"x_max":670,"ha":670,"o":"m 414 0 l 414 302 q 414 413 348 413 q 301 413 279 374 q 257 334 257 243 l 257 0 l 66 0 l 66 760 l 257 760 l 257 652 q 257 579 249 485 l 258 485 q 285 528 323 545 q 360 563 410 563 q 503 563 554 510 q 606 456 606 360 l 606 0 z"},"z":{"x_min":0,"x_max":507,"ha":507,"o":"m 482 0 l 24 0 l 24 109 l 253 407 l 37 407 l 37 553 l 471 553 l 471 435 l 252 146 l 482 146 z"},"B":{"x_min":0,"x_max":674,"ha":674,"o":"m 77 714 l 326 714 q 472 714 542 671 q 613 627 613 536 q 613 476 582 434 q 551 391 501 379 l 501 374 q 567 356 597 315 q 627 274 627 209 q 627 112 554 56 q 481 0 355 0 l 77 0 z m 270 440 l 328 440 q 370 440 392 457 q 415 474 415 508 q 415 568 324 568 l 270 568 z m 270 299 l 270 149 l 338 149 q 428 149 428 225 q 428 261 404 280 q 380 299 334 299 z"},"K":{"x_min":0,"x_max":687,"ha":687,"o":"m 687 0 l 469 0 l 328 273 l 271 239 l 271 0 l 77 0 l 77 714 l 271 714 l 271 404 q 286 433 330 495 l 480 714 l 691 714 l 466 394 z"},"R":{"x_min":0,"x_max":677,"ha":677,"o":"m 270 260 l 270 0 l 77 0 l 77 714 l 311 714 q 602 714 602 503 q 602 379 481 311 l 689 0 l 470 0 l 319 260 z m 270 405 l 306 405 q 407 405 407 494 q 407 568 308 568 l 270 568 z"},"T":{"x_min":0,"x_max":591,"ha":591,"o":"m 392 0 l 199 0 l 199 556 l 25 556 l 25 714 l 566 714 l 566 556 l 392 556 z"},"P":{"x_min":0,"x_max":632,"ha":632,"o":"m 595 487 q 595 367 525 302 q 454 237 324 237 l 270 237 l 270 0 l 77 0 l 77 714 l 324 714 q 459 714 527 655 q 595 596 595 487 z m 270 394 l 305 394 q 349 394 374 418 q 400 443 400 486 q 400 558 320 558 l 270 558 z"},"|":{"x_min":0,"x_max":509,"ha":509,"o":"m 189 760 l 320 760 l 320 -218 l 189 -218 z"},"t":{"x_min":0,"x_max":460,"ha":460,"o":"m 337 141 q 375 141 429 160 l 429 21 q 391 4 356 -3 q 321 -10 274 -10 q 178 -10 135 37 q 93 84 93 182 l 93 410 l 26 410 l 26 488 l 111 548 l 160 664 l 285 664 l 285 553 l 421 553 l 421 410 l 285 410 l 285 195 q 285 141 337 141 z"},"M":{"x_min":0,"x_max":967,"ha":967,"o":"m 388 0 l 242 514 l 238 514 q 248 383 248 310 l 248 0 l 77 0 l 77 714 l 334 714 l 483 207 l 487 207 l 633 714 l 890 714 l 890 0 l 713 0 l 713 313 q 713 337 714 367 q 714 397 720 513 l 716 513 l 572 0 z"},"g":{"x_min":0,"x_max":606,"ha":606,"o":"m 588 553 l 588 461 l 512 433 q 528 405 528 367 q 528 278 465 229 q 402 179 278 179 q 247 179 229 183 q 222 170 222 159 q 222 145 245 137 q 268 130 305 130 l 397 130 q 583 130 583 -27 q 583 -128 497 -184 q 411 -240 255 -240 q 137 -240 73 -201 q 10 -162 10 -88 q 10 11 133 40 q 107 51 89 75 q 70 99 70 122 q 70 148 84 168 q 98 188 143 215 q 100 234 75 274 q 51 315 51 373 q 51 463 112 513 q 174 563 288 563 q 303 563 340 560 q 377 556 395 553 z m 171 -69 q 171 -92 196 -107 q 222 -121 264 -121 q 333 -121 375 -104 q 417 -86 417 -59 q 417 -37 392 -28 q 366 -19 319 -19 l 244 -19 q 213 -19 192 -33 q 171 -48 171 -69 z m 231 372 q 231 287 290 287 q 317 287 332 308 q 347 329 347 371 q 347 457 290 457 q 231 457 231 372 z"},"j":{"x_min":0,"x_max":324,"ha":324,"o":"m 52 -240 q 28 -240 -2 -237 q -33 -233 -51 -228 l -51 -79 q -20 -88 8 -88 q 66 -88 66 -5 l 66 553 l 257 553 l 257 -45 q 257 -136 203 -188 q 150 -240 52 -240 z m 61 691 q 61 734 85 755 q 109 776 162 776 q 215 776 240 754 q 264 733 264 691 q 264 607 162 607 q 61 607 61 691 z"},"i":{"x_min":0,"x_max":325,"ha":325,"o":"m 258 0 l 67 0 l 67 553 l 258 553 z m 62 691 q 62 734 86 755 q 110 776 163 776 q 216 776 241 754 q 265 733 265 691 q 265 607 163 607 q 62 607 62 691 z"},"y":{"x_min":0,"x_max":610,"ha":610,"o":"m -1 553 l 200 553 l 294 236 q 301 211 303 176 l 307 176 q 311 209 319 235 l 415 553 l 610 553 l 391 -35 q 349 -147 288 -194 q 227 -240 128 -240 q 90 -240 50 -232 l 50 -82 q 76 -88 109 -88 q 134 -88 153 -78 q 172 -68 187 -51 q 201 -33 217 8 z"},"@":{"x_min":0,"x_max":897,"ha":897,"o":"m 857 369 q 857 300 833 241 q 810 181 768 147 q 726 114 672 114 q 633 114 602 129 q 571 145 553 172 l 546 172 q 494 114 419 114 q 330 114 282 166 q 234 218 234 312 q 234 381 264 434 q 294 487 352 515 q 409 544 484 544 q 523 544 571 536 q 619 528 658 514 l 648 308 l 647 262 q 647 220 671 220 q 696 220 712 263 q 728 305 728 370 q 728 487 662 550 q 596 614 475 614 q 382 614 314 575 q 245 537 209 465 q 173 393 173 296 q 173 171 242 104 q 312 36 439 36 q 496 36 561 48 q 627 61 690 83 l 690 -29 q 581 -75 446 -75 q 256 -75 148 24 q 40 123 40 298 q 40 421 96 519 q 152 617 250 670 q 349 723 473 723 q 587 723 675 680 q 763 636 810 556 q 857 476 857 369 z m 371 313 q 371 264 389 242 q 407 220 436 220 q 474 220 491 250 q 509 281 514 358 l 519 434 q 500 437 486 437 q 433 437 402 404 q 371 372 371 313 z"},".":{"x_min":0,"x_max":289,"ha":289,"o":"m 42 81 q 42 126 69 150 q 95 175 146 175 q 194 175 220 150 q 246 126 246 81 q 246 37 219 12 q 193 -12 146 -12 q 98 -12 70 12 q 42 37 42 81 z"},"p":{"x_min":0,"x_max":643,"ha":643,"o":"m 398 -10 q 356 -10 323 4 q 290 18 257 54 l 248 54 q 257 -4 257 -18 l 257 -240 l 66 -240 l 66 553 l 221 553 l 248 483 l 257 483 q 310 563 404 563 q 496 563 548 487 q 600 411 600 278 q 600 144 546 67 q 491 -10 398 -10 z m 334 413 q 292 413 275 383 q 258 353 257 294 l 257 279 q 257 208 276 176 q 295 144 336 144 q 373 144 389 176 q 406 207 406 280 q 406 351 389 382 q 373 413 334 413 z"},"X":{"x_min":0,"x_max":723,"ha":723,"o":"m 720 0 l 497 0 l 358 223 l 220 0 l 2 0 l 239 365 l 16 714 l 230 714 l 359 493 l 483 714 l 703 714 l 477 350 z"},"*":{"x_min":0,"x_max":537,"ha":537,"o":"m 343 760 l 324 588 l 498 637 l 516 493 l 363 483 l 464 347 l 337 280 l 267 418 l 207 281 l 74 347 l 175 483 l 22 495 l 44 637 l 214 588 l 195 760 z"},"Y":{"x_min":0,"x_max":664,"ha":664,"o":"m 332 449 l 455 714 l 664 714 l 429 279 l 429 0 l 235 0 l 235 273 l 0 714 l 210 714 z"},"c":{"x_min":0,"x_max":539,"ha":539,"o":"m 318 -10 q 182 -10 112 63 q 42 137 42 274 q 42 412 118 487 q 193 563 333 563 q 429 563 514 521 l 458 380 q 423 395 394 404 q 365 413 333 413 q 287 413 261 377 q 236 341 236 275 q 236 142 334 142 q 418 142 495 191 l 495 39 q 421 -10 318 -10 z"},"!":{"x_min":0,"x_max":290,"ha":290,"o":"m 226 252 l 65 252 l 40 714 l 251 714 z m 42 81 q 42 125 68 150 q 95 175 145 175 q 195 175 220 150 q 246 125 246 81 q 246 37 219 12 q 193 -12 145 -12 q 97 -12 69 12 q 42 37 42 81 z"},"/":{"x_min":0,"x_max":442,"ha":442,"o":"m 440 724 l 174 -10 l 5 -10 l 271 724 z"},"[":{"x_min":0,"x_max":324,"ha":324,"o":"m 301 -168 l 57 -168 l 57 734 l 301 734 l 301 610 l 212 610 l 212 -44 l 301 -44 z m 173 725 z"},"6":{"x_min":0,"x_max":586,"ha":586,"o":"m 34 302 q 34 451 77 544 q 120 636 203 680 q 286 724 408 724 q 452 724 510 716 l 510 565 q 461 574 404 574 q 307 574 260 532 q 212 489 208 393 l 214 393 q 258 476 355 476 q 450 476 503 415 q 555 354 555 244 q 555 126 489 58 q 422 -10 303 -10 q 177 -10 105 72 q 34 154 34 302 z m 299 143 q 330 143 349 166 q 368 189 368 240 q 368 327 301 327 q 268 327 247 305 q 226 282 226 250 q 226 203 246 173 q 266 143 299 143 z"},"r":{"x_min":0,"x_max":469,"ha":469,"o":"m 400 563 q 425 563 447 559 l 458 557 l 441 377 q 417 383 376 383 q 313 383 285 354 q 257 326 257 272 l 257 0 l 66 0 l 66 553 l 208 553 l 238 465 l 247 465 q 271 509 314 536 q 356 563 400 563 z"},"2":{"x_min":0,"x_max":586,"ha":586,"o":"m 548 0 l 30 0 l 30 127 l 204 303 q 279 381 302 410 q 325 438 334 459 q 343 479 343 502 q 343 530 325 546 q 307 562 274 562 q 240 562 206 543 q 171 523 128 486 l 22 610 q 77 659 115 680 q 152 702 197 713 q 241 724 296 724 q 365 724 420 700 q 474 675 504 630 q 534 585 534 529 q 534 487 524 451 q 513 416 491 381 q 469 347 433 309 q 396 271 278 164 l 278 159 l 548 159 z"},"{":{"x_min":0,"x_max":433,"ha":433,"o":"m 30 351 q 86 351 118 373 q 150 395 150 434 l 150 558 q 150 626 174 660 q 198 693 252 709 q 306 724 401 724 l 401 588 q 357 586 342 581 q 327 576 317 565 q 308 555 308 536 l 308 404 q 308 349 281 319 q 253 290 191 281 l 191 275 q 253 265 281 236 q 308 208 308 155 l 308 20 q 308 1 318 -10 q 329 -21 346 -26 q 363 -31 401 -32 l 401 -168 q 305 -168 251 -152 q 197 -137 174 -103 q 150 -69 150 0 l 150 121 q 150 160 117 182 q 84 204 30 204 z"},"9":{"x_min":0,"x_max":586,"ha":586,"o":"m 553 387 q 553 178 463 84 q 373 -10 174 -10 q 108 -10 74 -5 l 74 148 q 116 140 158 140 q 262 140 318 183 q 374 226 379 318 l 373 318 q 354 283 335 267 q 317 251 290 243 q 263 235 223 235 q 130 235 78 297 q 26 359 26 468 q 26 586 94 654 q 161 721 279 721 q 410 721 481 634 q 553 547 553 387 z m 284 567 q 252 567 233 544 q 213 521 213 470 q 213 430 230 406 q 247 383 282 383 q 314 383 337 406 q 361 429 361 461 q 361 504 339 536 q 317 567 284 567 z"}," ":{"x_min":0,"x_max":260,"ha":260,"o":""},"I":{"x_min":0,"x_max":348,"ha":348,"o":"m 77 0 l 77 714 l 271 714 l 271 0 z"},"H":{"x_min":0,"x_max":766,"ha":766,"o":"m 689 0 l 495 0 l 495 291 l 271 291 l 271 0 l 77 0 l 77 714 l 271 714 l 271 449 l 495 449 l 495 714 l 689 714 z"},"4":{"x_min":0,"x_max":586,"ha":586,"o":"m 571 138 l 492 138 l 492 0 l 302 0 l 302 138 l 17 138 l 17 280 l 314 714 l 492 714 l 492 282 l 571 282 z m 302 282 l 302 365 q 302 389 303 428 q 305 468 306 470 l 301 470 q 284 433 263 400 l 184 282 z"},"~":{"x_min":0,"x_max":566,"ha":566,"o":"m 149 316 q 95 316 35 257 l 35 394 q 86 447 164 447 q 198 447 228 440 q 257 434 301 416 q 365 389 417 389 q 441 389 472 405 q 502 420 530 448 l 530 311 q 479 258 401 258 q 366 258 336 265 q 305 272 264 289 q 200 316 149 316 z"},"D":{"x_min":0,"x_max":734,"ha":734,"o":"m 683 372 q 683 193 585 97 q 486 0 308 0 l 77 0 l 77 714 l 324 714 q 496 714 590 626 q 683 538 683 372 z m 483 365 q 483 463 444 511 q 405 558 326 558 l 270 558 l 270 158 l 313 158 q 401 158 442 209 q 483 260 483 365 z"},"^":{"x_min":0,"x_max":525,"ha":525,"o":"m -8 245 l 207 717 l 290 717 l 538 245 l 394 245 l 253 527 l 192 385 l 132 245 z"},"0":{"x_min":0,"x_max":586,"ha":586,"o":"m 551 356 q 551 167 487 78 q 424 -10 293 -10 q 165 -10 100 82 q 35 174 35 356 q 35 546 99 635 q 162 724 293 724 q 420 724 486 632 q 551 539 551 356 z m 227 356 q 227 235 242 189 q 257 144 293 144 q 329 144 344 191 q 359 238 359 356 q 359 475 344 522 q 329 570 293 570 q 257 570 242 524 q 227 478 227 356 z"},"F":{"x_min":0,"x_max":539,"ha":539,"o":"m 267 0 l 77 0 l 77 714 l 499 714 l 499 559 l 267 559 l 267 423 l 481 423 l 481 268 l 267 268 z"},"`":{"x_min":0,"x_max":598,"ha":598,"o":"m 340 606 q 306 627 240 674 q 175 720 129 756 l 129 766 l 339 766 q 364 732 438 652 l 467 620 l 467 606 z"},"k":{"x_min":0,"x_max":659,"ha":659,"o":"m 251 311 q 286 366 310 397 l 434 553 l 647 553 l 455 318 l 659 0 l 441 0 l 320 198 l 258 151 l 258 0 l 66 0 l 66 760 l 258 760 l 258 461 q 258 384 247 311 z"},"u":{"x_min":0,"x_max":670,"ha":670,"o":"m 460 0 l 436 69 l 425 69 q 401 31 358 10 q 315 -10 258 -10 q 167 -10 116 43 q 65 96 65 193 l 65 553 l 256 553 l 256 251 q 256 197 271 169 q 287 141 322 141 q 371 141 392 180 q 413 219 413 311 l 413 553 l 604 553 l 604 0 z"},"]":{"x_min":0,"x_max":324,"ha":324,"o":"m 23 -44 l 112 -44 l 112 610 l 23 610 l 23 734 l 267 734 l 267 -168 l 23 -168 z m 155 725 z"},"U":{"x_min":0,"x_max":757,"ha":757,"o":"m 684 714 l 684 284 q 684 144 605 67 q 525 -10 376 -10 q 230 -10 152 65 q 73 140 73 280 l 73 714 l 267 714 l 267 295 q 267 219 295 185 q 324 151 379 151 q 438 151 465 185 q 491 219 491 296 l 491 714 z"},"o":{"x_min":0,"x_max":637,"ha":637,"o":"m 594 278 q 594 142 521 66 q 448 -10 317 -10 q 191 -10 116 68 q 42 146 42 278 q 42 413 115 488 q 188 563 320 563 q 401 563 464 528 q 526 494 560 429 q 594 364 594 278 z m 236 278 q 236 207 255 169 q 274 132 319 132 q 363 132 382 169 q 400 207 400 278 q 400 349 381 385 q 363 421 318 421 q 274 421 255 385 q 236 349 236 278 z"},"N":{"x_min":0,"x_max":834,"ha":834,"o":"m 757 0 l 504 0 l 243 503 l 239 503 q 248 384 248 322 l 248 0 l 77 0 l 77 714 l 329 714 l 589 218 l 592 218 q 585 326 585 391 l 585 714 l 757 714 z"},"+":{"x_min":0,"x_max":566,"ha":566,"o":"m 217 287 l 35 287 l 35 418 l 217 418 l 217 597 l 348 597 l 348 418 l 530 418 l 530 287 l 348 287 l 348 111 l 217 111 z"},"G":{"x_min":0,"x_max":740,"ha":740,"o":"m 364 418 l 672 418 l 672 33 q 546 -10 396 -10 q 231 -10 141 86 q 51 182 51 359 q 51 532 149 628 q 248 724 426 724 q 493 724 553 711 q 613 699 657 679 l 596 528 q 519 566 427 566 q 342 566 296 511 q 250 456 250 354 q 250 254 292 201 q 333 149 412 149 q 455 149 491 157 l 491 269 l 364 269 z"},"q":{"x_min":0,"x_max":643,"ha":643,"o":"m 240 -10 q 147 -10 95 66 q 42 143 42 276 q 42 411 96 487 q 150 563 243 563 q 343 563 394 485 l 398 485 l 412 553 l 577 553 l 577 -240 l 386 -240 l 386 -11 q 386 5 392 70 l 386 70 q 339 -10 240 -10 z m 318 138 q 361 138 381 165 q 401 192 401 256 l 401 279 q 401 352 381 384 q 361 415 315 415 q 236 415 236 273 q 236 201 256 169 q 276 138 318 138 z"},"d":{"x_min":0,"x_max":643,"ha":643,"o":"m 238 -10 q 179 -10 135 24 q 90 58 66 123 q 42 188 42 276 q 42 411 96 487 q 150 563 245 563 q 292 563 326 544 q 361 526 390 482 l 394 482 q 385 547 385 612 l 385 760 l 577 760 l 577 0 l 433 0 l 392 70 l 385 70 q 335 -10 238 -10 z m 316 141 q 362 141 381 170 q 399 199 401 259 l 401 274 q 401 347 380 378 q 359 409 314 409 q 276 409 256 374 q 235 338 235 273 q 235 208 256 175 q 277 141 316 141 z"},"1":{"x_min":0,"x_max":586,"ha":586,"o":"m 460 0 l 264 0 l 264 378 q 264 447 267 504 q 249 482 222 458 l 141 391 l 41 514 l 286 714 l 460 714 z"},"5":{"x_min":0,"x_max":586,"ha":586,"o":"m 324 468 q 386 468 435 439 q 485 411 512 358 q 540 306 540 238 q 540 118 468 54 q 396 -10 250 -10 q 125 -10 46 29 l 46 187 q 88 167 142 155 q 195 142 234 142 q 288 142 316 165 q 345 188 345 232 q 345 273 316 296 q 287 319 227 319 q 182 319 129 302 l 58 337 l 85 714 l 492 714 l 492 553 l 249 553 l 240 459 q 278 466 294 467 q 311 468 324 468 z"}}}
